<?xml version="1.0" encoding="utf-8"?>
<!-- Generator: Adobe Illustrator 23.1.1, SVG Export Plug-In . SVG Version: 6.00 Build 0)  -->
<svg version="1.1" id="Livello_1" xmlns="http://www.w3.org/2000/svg" xmlns:xlink="http://www.w3.org/1999/xlink" x="0px" y="0px"
	 viewBox="0 0 500 164" style="enable-background:new 0 0 500 164;" xml:space="preserve">
<style type="text/css">
	.st0{fill:#7C00FF;}
	.st1{fill:#FF0077;}
	.st2{fill:#00FFB0;}
	.st3{fill:#16FFBD;}
	.st4{fill:#FFFFFF;}
	.st5{fill:#FCFCFC;}
</style>
<g>
	<g>
		<path class="st4" d="M115.9,54.49c8.76,8.95,13.14,22.45,13.14,40.5v44.53c0,13.33-10.81,24.14-24.14,24.14h0
			c-13.33,0-24.14-10.81-24.14-24.14v-35.95c0-13.79-4.77-20.69-14.31-20.69c-5.41,0-9.79,1.95-13.14,5.83
			c-3.35,3.89-5.02,10.01-5.02,18.38v32.43c0,13.33-10.81,24.14-24.14,24.14h0C10.81,163.66,0,152.85,0,139.52V24.48
			C0,11.15,10.81,0.34,24.14,0.34h0c13.33,0,24.14,10.81,24.14,24.14l0,8.63c0,7.77,7.65,13.56,14.95,10.92
			c5.48-1.98,11.47-2.97,17.95-2.97C95.57,41.06,107.14,45.54,115.9,54.49z"/>
	</g>
	<g>
		<path class="st4" d="M499.26,44.23l-26.63,96.48c-3.67,13.29-15.74,22.52-29.53,22.58h0c-13.96,0.06-26.21-9.28-29.84-22.75
			l-4.76-17.64c-1.96-7.25-12.24-7.25-14.2,0l-4.83,17.9c-3.63,13.44-15.79,22.79-29.71,22.86h0c-13.86,0.06-26.06-9.11-29.86-22.43
			l-26.87-94.15c-3.98-13.93,6.45-27.81,20.93-27.87h0c9.94-0.04,18.65,6.62,21.22,16.22l12.57,46.98c0.96,3.58,6.04,3.58,7,0.01
			l11.79-43.76c3.13-11.63,13.66-19.73,25.7-19.79h0c12.15-0.05,22.81,8.09,25.95,19.83l11.79,44.08c0.96,3.58,6.05,3.58,7,0
			l13.11-49.17c2.36-8.85,10.36-15.03,19.52-15.07h0C493.05,18.47,502.83,31.27,499.26,44.23z"/>
	</g>
	<path class="st4" d="M212.24,31.49l-55.11,107.55c-5.77,11.25,2.41,24.62,15.05,24.62c16.96-1.52,35.48-7.37,55.36-7.37
		c19.69,0.01,38.04,5.86,54.86,7.37c0.5,0,9.58-0.16,14.43-8.09c2.9-4.75,3.5-10.9,0.62-16.53L242.34,31.49
		C236.06,19.23,218.53,19.23,212.24,31.49z"/>
</g>
</svg>
