<svg id="Livello_1" data-name="Livello 1" xmlns="http://www.w3.org/2000/svg" viewBox="0 0 500 164"><defs><style>.cls-1{fill:#7c00ff;}.cls-2{fill:#f07;}.cls-3{fill:#16ffbd;}</style></defs><title>logo</title><path class="cls-1" d="M115.9,54.49Q129,67.91,129,95v44.53a24.14,24.14,0,0,1-24.14,24.14h0a24.14,24.14,0,0,1-24.15-24.14v-36q0-20.68-14.31-20.69A16.54,16.54,0,0,0,53.3,88.71q-5,5.83-5,18.38v32.43a24.14,24.14,0,0,1-24.14,24.14h0A24.14,24.14,0,0,1,0,139.52v-115A24.14,24.14,0,0,1,24.14.34h0A24.14,24.14,0,0,1,48.28,24.48v8.63c0,7.77,7.65,13.56,15,10.92a52.43,52.43,0,0,1,17.94-3Q102.76,41.06,115.9,54.49Z"/><path class="cls-2" d="M499.26,44.23l-26.63,96.48A30.79,30.79,0,0,1,443.1,163.3h0a30.76,30.76,0,0,1-29.84-22.76L408.5,122.9a7.35,7.35,0,0,0-14.2,0l-4.84,17.9a30.92,30.92,0,0,1-29.71,22.86h0a30.91,30.91,0,0,1-29.86-22.43L303,47.08A21.87,21.87,0,0,1,324,19.21h0a21.86,21.86,0,0,1,21.22,16.22l12.57,47a3.62,3.62,0,0,0,7,0l11.79-43.75a26.73,26.73,0,0,1,25.7-19.79h0A26.74,26.74,0,0,1,428.18,38.7L440,82.78a3.62,3.62,0,0,0,7,0l13.1-49.17a20.3,20.3,0,0,1,19.53-15.07h0A20.3,20.3,0,0,1,499.26,44.23Z"/><path class="cls-3" d="M212.24,31.49,157.13,139a16.91,16.91,0,0,0,15.05,24.62c17-1.52,35.48-7.38,55.37-7.37,19.69,0,38,5.87,54.85,7.37.51,0,9.58-.16,14.43-8.09a16.78,16.78,0,0,0,.62-16.53L242.34,31.49A16.91,16.91,0,0,0,212.24,31.49Z"/></svg>